<svg width="261" height="18" viewBox="0 0 261 18" fill="none" xmlns="http://www.w3.org/2000/svg">
<path d="M0.6 17.088C0.424 17.088 0.28 17.032 0.168 16.92C0.0559998 16.808 -2.98023e-07 16.664 -2.98023e-07 16.488V0.888001C-2.98023e-07 0.712 0.0559998 0.568 0.168 0.456001C0.28 0.344 0.424 0.288 0.6 0.288H3.144C3.416 0.288 3.608 0.352 3.72 0.48C3.848 0.592 3.928 0.68 3.96 0.744L9.816 9.984V0.888001C9.816 0.712 9.872 0.568 9.984 0.456001C10.096 0.344 10.24 0.288 10.416 0.288H13.296C13.472 0.288 13.616 0.344 13.728 0.456001C13.84 0.568 13.896 0.712 13.896 0.888001V16.488C13.896 16.648 13.84 16.792 13.728 16.92C13.616 17.032 13.472 17.088 13.296 17.088H10.728C10.472 17.088 10.28 17.024 10.152 16.896C10.04 16.768 9.968 16.68 9.936 16.632L4.08 7.752V16.488C4.08 16.664 4.024 16.808 3.912 16.92C3.8 17.032 3.656 17.088 3.48 17.088H0.6ZM16.29 17.088C16.162 17.088 16.042 17.04 15.93 16.944C15.834 16.832 15.786 16.712 15.786 16.584C15.786 16.504 15.794 16.432 15.81 16.368L21.45 0.96C21.498 0.784 21.594 0.632 21.738 0.504C21.898 0.36 22.114 0.288 22.386 0.288H25.938C26.21 0.288 26.418 0.36 26.562 0.504C26.722 0.632 26.826 0.784 26.874 0.96L32.49 16.368C32.522 16.432 32.538 16.504 32.538 16.584C32.538 16.712 32.482 16.832 32.37 16.944C32.274 17.04 32.154 17.088 32.01 17.088H29.058C28.818 17.088 28.634 17.032 28.506 16.92C28.394 16.792 28.322 16.68 28.29 16.584L27.354 14.136H20.946L20.034 16.584C20.002 16.68 19.93 16.792 19.818 16.92C19.706 17.032 19.514 17.088 19.242 17.088H16.29ZM21.93 10.68H26.394L24.138 4.344L21.93 10.68ZM35.0297 17.088C34.8697 17.088 34.7257 17.032 34.5977 16.92C34.4857 16.808 34.4297 16.664 34.4297 16.488V0.888001C34.4297 0.712 34.4857 0.568 34.5977 0.456001C34.7257 0.344 34.8697 0.288 35.0297 0.288H37.6217C37.8777 0.288 38.0697 0.36 38.1977 0.504C38.3417 0.632 38.4297 0.736001 38.4617 0.816L42.6857 8.4L46.9097 0.816C46.9577 0.736001 47.0377 0.632 47.1497 0.504C47.2777 0.36 47.4777 0.288 47.7497 0.288H50.3177C50.4937 0.288 50.6377 0.344 50.7497 0.456001C50.8777 0.568 50.9417 0.712 50.9417 0.888001V16.488C50.9417 16.664 50.8777 16.808 50.7497 16.92C50.6377 17.032 50.4937 17.088 50.3177 17.088H47.4617C47.2857 17.088 47.1337 17.032 47.0057 16.92C46.8937 16.808 46.8377 16.664 46.8377 16.488V7.488L44.1257 12.504C44.0617 12.648 43.9657 12.776 43.8377 12.888C43.7097 13 43.5337 13.056 43.3097 13.056H42.0617C41.8377 13.056 41.6617 13 41.5337 12.888C41.4057 12.776 41.3017 12.648 41.2217 12.504L38.5097 7.488V16.488C38.5097 16.664 38.4537 16.808 38.3417 16.92C38.2297 17.032 38.0857 17.088 37.9097 17.088H35.0297ZM53.3212 17.088C53.1932 17.088 53.0732 17.04 52.9612 16.944C52.8652 16.832 52.8172 16.712 52.8172 16.584C52.8172 16.504 52.8252 16.432 52.8412 16.368L58.4812 0.96C58.5292 0.784 58.6252 0.632 58.7692 0.504C58.9293 0.36 59.1453 0.288 59.4172 0.288H62.9692C63.2413 0.288 63.4493 0.36 63.5933 0.504C63.7533 0.632 63.8573 0.784 63.9053 0.96L69.5213 16.368C69.5533 16.432 69.5693 16.504 69.5693 16.584C69.5693 16.712 69.5133 16.832 69.4013 16.944C69.3053 17.04 69.1853 17.088 69.0413 17.088H66.0893C65.8493 17.088 65.6653 17.032 65.5373 16.92C65.4253 16.792 65.3533 16.68 65.3213 16.584L64.3853 14.136H57.9772L57.0652 16.584C57.0332 16.68 56.9612 16.792 56.8492 16.92C56.7372 17.032 56.5452 17.088 56.2732 17.088H53.3212ZM58.9613 10.68H63.4253L61.1693 4.344L58.9613 10.68ZM72.0609 17.088C71.8849 17.088 71.7409 17.032 71.6289 16.92C71.5169 16.808 71.4609 16.664 71.4609 16.488V0.888001C71.4609 0.712 71.5169 0.568 71.6289 0.456001C71.7409 0.344 71.8849 0.288 72.0609 0.288H74.6049C74.8769 0.288 75.0689 0.352 75.1809 0.48C75.3089 0.592 75.3889 0.68 75.4209 0.744L81.2769 9.984V0.888001C81.2769 0.712 81.3329 0.568 81.4449 0.456001C81.5569 0.344 81.7009 0.288 81.8769 0.288H84.7569C84.9329 0.288 85.0769 0.344 85.1889 0.456001C85.3009 0.568 85.3569 0.712 85.3569 0.888001V16.488C85.3569 16.648 85.3009 16.792 85.1889 16.92C85.0769 17.032 84.9329 17.088 84.7569 17.088H82.1889C81.9329 17.088 81.7409 17.024 81.6129 16.896C81.5009 16.768 81.4289 16.68 81.3969 16.632L75.5409 7.752V16.488C75.5409 16.664 75.4849 16.808 75.3729 16.92C75.2609 17.032 75.1169 17.088 74.9409 17.088H72.0609ZM95.6469 17.328C94.1269 17.328 92.8149 17.08 91.7109 16.584C90.6229 16.072 89.7749 15.336 89.1669 14.376C88.5749 13.4 88.2469 12.216 88.1829 10.824C88.1669 10.136 88.1589 9.408 88.1589 8.64C88.1589 7.856 88.1669 7.112 88.1829 6.408C88.2469 5.048 88.5829 3.896 89.1909 2.952C89.7989 2.008 90.6549 1.288 91.7589 0.792001C92.8629 0.296 94.1589 0.0480003 95.6469 0.0480003C96.8469 0.0480003 97.9109 0.2 98.8389 0.504C99.7669 0.792 100.543 1.184 101.167 1.68C101.807 2.176 102.287 2.72 102.607 3.312C102.943 3.904 103.119 4.488 103.135 5.064C103.151 5.208 103.103 5.328 102.991 5.424C102.895 5.52 102.775 5.568 102.631 5.568H99.1269C98.9509 5.568 98.8149 5.544 98.7189 5.496C98.6389 5.432 98.5669 5.344 98.5029 5.232C98.3909 4.992 98.2229 4.744 97.9989 4.488C97.7909 4.216 97.4949 3.984 97.1109 3.792C96.7429 3.6 96.2549 3.504 95.6469 3.504C94.7349 3.504 94.0149 3.744 93.4869 4.224C92.9749 4.704 92.6949 5.472 92.6469 6.528C92.5989 7.904 92.5989 9.296 92.6469 10.704C92.6949 11.824 92.9909 12.632 93.5349 13.128C94.0789 13.624 94.7989 13.872 95.6949 13.872C96.3029 13.872 96.8389 13.768 97.3029 13.56C97.7829 13.352 98.1589 13.032 98.4309 12.6C98.7029 12.152 98.8389 11.584 98.8389 10.896V10.44H96.5829C96.4069 10.44 96.2549 10.384 96.1269 10.272C96.0149 10.144 95.9589 9.992 95.9589 9.816V8.04C95.9589 7.864 96.0149 7.72 96.1269 7.608C96.2549 7.48 96.4069 7.416 96.5829 7.416H102.631C102.807 7.416 102.951 7.48 103.063 7.608C103.175 7.72 103.231 7.864 103.231 8.04V10.776C103.231 12.152 102.919 13.328 102.295 14.304C101.671 15.28 100.783 16.032 99.6309 16.56C98.4949 17.072 97.1669 17.328 95.6469 17.328ZM104.649 17.088C104.521 17.088 104.401 17.04 104.289 16.944C104.193 16.832 104.145 16.712 104.145 16.584C104.145 16.504 104.153 16.432 104.169 16.368L109.809 0.96C109.857 0.784 109.953 0.632 110.097 0.504C110.257 0.36 110.473 0.288 110.745 0.288H114.297C114.569 0.288 114.777 0.36 114.921 0.504C115.081 0.632 115.185 0.784 115.233 0.96L120.849 16.368C120.881 16.432 120.897 16.504 120.897 16.584C120.897 16.712 120.841 16.832 120.729 16.944C120.633 17.04 120.513 17.088 120.369 17.088H117.417C117.177 17.088 116.993 17.032 116.865 16.92C116.753 16.792 116.681 16.68 116.649 16.584L115.713 14.136H109.305L108.393 16.584C108.361 16.68 108.289 16.792 108.177 16.92C108.065 17.032 107.873 17.088 107.601 17.088H104.649ZM110.289 10.68H114.753L112.497 4.344L110.289 10.68ZM123.389 17.088C123.213 17.088 123.069 17.032 122.957 16.92C122.845 16.808 122.789 16.664 122.789 16.488V0.888001C122.789 0.712 122.845 0.568 122.957 0.456001C123.069 0.344 123.213 0.288 123.389 0.288H125.933C126.205 0.288 126.397 0.352 126.509 0.48C126.637 0.592 126.717 0.68 126.749 0.744L132.605 9.984V0.888001C132.605 0.712 132.661 0.568 132.773 0.456001C132.885 0.344 133.029 0.288 133.205 0.288H136.085C136.261 0.288 136.405 0.344 136.517 0.456001C136.629 0.568 136.685 0.712 136.685 0.888001V16.488C136.685 16.648 136.629 16.792 136.517 16.92C136.405 17.032 136.261 17.088 136.085 17.088H133.517C133.261 17.088 133.069 17.024 132.941 16.896C132.829 16.768 132.757 16.68 132.725 16.632L126.869 7.752V16.488C126.869 16.664 126.813 16.808 126.701 16.92C126.589 17.032 126.445 17.088 126.269 17.088H123.389ZM140.639 17.088C140.463 17.088 140.319 17.032 140.207 16.92C140.095 16.808 140.039 16.664 140.039 16.488V0.888001C140.039 0.712 140.095 0.568 140.207 0.456001C140.319 0.344 140.463 0.288 140.639 0.288H143.807C143.967 0.288 144.103 0.344 144.215 0.456001C144.343 0.568 144.407 0.712 144.407 0.888001V13.464H151.655C151.831 13.464 151.975 13.528 152.087 13.656C152.215 13.768 152.279 13.912 152.279 14.088V16.488C152.279 16.664 152.215 16.808 152.087 16.92C151.975 17.032 151.831 17.088 151.655 17.088H140.639ZM154.959 17.088C154.783 17.088 154.639 17.032 154.527 16.92C154.415 16.808 154.359 16.664 154.359 16.488V0.888001C154.359 0.712 154.415 0.568 154.527 0.456001C154.639 0.344 154.783 0.288 154.959 0.288H158.175C158.351 0.288 158.495 0.344 158.607 0.456001C158.719 0.568 158.775 0.712 158.775 0.888001V16.488C158.775 16.664 158.719 16.808 158.607 16.92C158.495 17.032 158.351 17.088 158.175 17.088H154.959ZM162.741 17.088C162.565 17.088 162.421 17.032 162.309 16.92C162.197 16.808 162.141 16.664 162.141 16.488V0.888001C162.141 0.712 162.197 0.568 162.309 0.456001C162.421 0.344 162.565 0.288 162.741 0.288H165.765C165.941 0.288 166.085 0.344 166.197 0.456001C166.309 0.568 166.365 0.712 166.365 0.888001V6.216L170.805 0.744C170.869 0.648 170.973 0.552001 171.117 0.456001C171.277 0.344 171.485 0.288 171.741 0.288H175.197C175.341 0.288 175.461 0.344 175.557 0.456001C175.653 0.552001 175.701 0.664001 175.701 0.792001C175.701 0.904 175.669 1 175.605 1.08L169.869 8.328L176.061 16.296C176.125 16.36 176.157 16.456 176.157 16.584C176.157 16.712 176.101 16.832 175.989 16.944C175.893 17.04 175.781 17.088 175.653 17.088H172.077C171.789 17.088 171.565 17.024 171.405 16.896C171.261 16.768 171.165 16.672 171.117 16.608L166.365 10.68V16.488C166.365 16.664 166.309 16.808 166.197 16.92C166.085 17.032 165.941 17.088 165.765 17.088H162.741ZM178.631 17.088C178.455 17.088 178.311 17.032 178.199 16.92C178.087 16.808 178.031 16.664 178.031 16.488V0.888001C178.031 0.712 178.087 0.568 178.199 0.456001C178.311 0.344 178.455 0.288 178.631 0.288H181.799C181.959 0.288 182.095 0.344 182.207 0.456001C182.335 0.568 182.399 0.712 182.399 0.888001V13.464H189.647C189.823 13.464 189.967 13.528 190.079 13.656C190.207 13.768 190.271 13.912 190.271 14.088V16.488C190.271 16.664 190.207 16.808 190.079 16.92C189.967 17.032 189.823 17.088 189.647 17.088H178.631ZM191.392 17.088C191.264 17.088 191.144 17.04 191.032 16.944C190.936 16.832 190.888 16.712 190.888 16.584C190.888 16.504 190.896 16.432 190.912 16.368L196.552 0.96C196.6 0.784 196.696 0.632 196.84 0.504C197 0.36 197.216 0.288 197.488 0.288H201.04C201.312 0.288 201.52 0.36 201.664 0.504C201.824 0.632 201.928 0.784 201.976 0.96L207.592 16.368C207.624 16.432 207.64 16.504 207.64 16.584C207.64 16.712 207.584 16.832 207.472 16.944C207.376 17.04 207.256 17.088 207.112 17.088H204.16C203.92 17.088 203.736 17.032 203.608 16.92C203.496 16.792 203.424 16.68 203.392 16.584L202.456 14.136H196.048L195.136 16.584C195.104 16.68 195.032 16.792 194.92 16.92C194.808 17.032 194.616 17.088 194.344 17.088H191.392ZM197.032 10.68H201.496L199.24 4.344L197.032 10.68ZM210.131 17.088C209.955 17.088 209.811 17.032 209.699 16.92C209.587 16.808 209.531 16.664 209.531 16.488V0.888001C209.531 0.712 209.587 0.568 209.699 0.456001C209.811 0.344 209.955 0.288 210.131 0.288H216.659C218.723 0.288 220.347 0.768 221.531 1.728C222.731 2.672 223.331 4.016 223.331 5.76C223.331 6.896 223.051 7.856 222.491 8.64C221.947 9.424 221.227 10.016 220.331 10.416L223.643 16.32C223.691 16.416 223.715 16.504 223.715 16.584C223.715 16.712 223.659 16.832 223.547 16.944C223.451 17.04 223.331 17.088 223.187 17.088H220.019C219.715 17.088 219.491 17.016 219.347 16.872C219.203 16.712 219.099 16.568 219.035 16.44L216.299 11.16H213.827V16.488C213.827 16.664 213.771 16.808 213.659 16.92C213.547 17.032 213.403 17.088 213.227 17.088H210.131ZM213.827 7.776H216.611C217.363 7.776 217.923 7.592 218.291 7.224C218.675 6.856 218.867 6.352 218.867 5.712C218.867 5.088 218.683 4.584 218.315 4.2C217.963 3.816 217.395 3.624 216.611 3.624H213.827V7.776ZM231.162 17.088C230.986 17.088 230.834 17.032 230.706 16.92C230.594 16.808 230.538 16.664 230.538 16.488V14.784C230.538 14.672 230.57 14.504 230.634 14.28C230.698 14.04 230.866 13.816 231.138 13.608L233.634 11.16C234.914 10.184 235.962 9.36 236.778 8.688C237.61 8 238.226 7.392 238.626 6.864C239.026 6.336 239.226 5.84 239.226 5.376C239.226 4.832 239.082 4.384 238.794 4.032C238.522 3.664 238.042 3.48 237.354 3.48C236.89 3.48 236.498 3.584 236.178 3.792C235.874 3.984 235.642 4.24 235.482 4.56C235.322 4.88 235.21 5.208 235.146 5.544C235.082 5.752 234.97 5.896 234.81 5.976C234.666 6.056 234.506 6.096 234.33 6.096H231.33C231.186 6.096 231.066 6.048 230.97 5.952C230.874 5.856 230.826 5.736 230.826 5.592C230.842 4.824 231.002 4.104 231.306 3.432C231.626 2.76 232.066 2.168 232.626 1.656C233.202 1.128 233.882 0.72 234.666 0.432001C235.466 0.144001 236.362 9.53674e-07 237.354 9.53674e-07C238.714 9.53674e-07 239.866 0.216001 240.81 0.648C241.77 1.08 242.498 1.688 242.994 2.472C243.49 3.24 243.738 4.144 243.738 5.184C243.738 5.968 243.562 6.704 243.21 7.392C242.874 8.064 242.386 8.712 241.746 9.336C241.122 9.944 240.378 10.576 239.514 11.232L237.306 13.464H243.474C243.65 13.464 243.794 13.52 243.906 13.632C244.034 13.744 244.098 13.888 244.098 14.064V16.488C244.098 16.664 244.034 16.808 243.906 16.92C243.794 17.032 243.65 17.088 243.474 17.088H231.162ZM254.406 17.088C254.246 17.088 254.102 17.032 253.974 16.92C253.862 16.808 253.806 16.664 253.806 16.488V13.776H246.342C246.182 13.776 246.038 13.72 245.91 13.608C245.798 13.496 245.742 13.352 245.742 13.176V10.896C245.742 10.752 245.766 10.624 245.814 10.512C245.878 10.384 245.942 10.264 246.006 10.152L252.99 0.696001C253.198 0.424 253.494 0.288 253.878 0.288H257.358C257.534 0.288 257.678 0.344 257.79 0.456001C257.918 0.568 257.982 0.712 257.982 0.888001V10.2H260.094C260.286 10.2 260.438 10.264 260.55 10.392C260.662 10.504 260.718 10.64 260.718 10.8V13.176C260.718 13.352 260.654 13.496 260.526 13.608C260.414 13.72 260.278 13.776 260.118 13.776H257.982V16.488C257.982 16.664 257.918 16.808 257.79 16.92C257.678 17.032 257.534 17.088 257.358 17.088H254.406ZM249.87 10.368H253.902V4.704L249.87 10.368Z" fill="#7296EE"/>
</svg>
